<svg xmlns="http://www.w3.org/2000/svg" version="1.1" xmlns:xlink="http://www.w3.org/1999/xlink" xmlns:svgjs="http://svgjs.dev/svgjs" width="1000" height="269" viewBox="0 0 1000 269"><g transform="matrix(1,0,0,1,0.16994382022460286,-0.0014010416666394576)"><svg viewBox="0 0 356 96" data-background-color="#ffffff" preserveAspectRatio="xMidYMid meet" height="269" width="1000" xmlns="http://www.w3.org/2000/svg" xmlns:xlink="http://www.w3.org/1999/xlink"><g id="tight-bounds" transform="matrix(1,0,0,1,-0.06049999999996203,0.0004999999999881766)"><svg viewBox="0 0 356.12052 95.99892125093075" height="95.99892125093075" width="356.12052"><g><svg viewBox="0 0 356.12052 95.99892125093075" height="95.99892125093075" width="356.12052"><g><svg viewBox="0 0 356.12052 95.99892125093075" height="95.99892125093075" width="356.12052"><g><path d="M0 95.999v-95.999h356.121v95.999z" fill="#f5a623" stroke="transparent" stroke-width="0" rx="0%" data-fill-palette-color="tertiary"></path><path d="M3.283 92.716v-89.433h349.554v89.433z" fill="#ffffff" stroke="transparent" stroke-width="0" rx="0%" data-fill-palette-color="quaternary"></path><path d="M9.85 86.149v-76.299h336.421v76.299z" fill="#f5a623" stroke="transparent" stroke-width="0" data-fill-palette-color="tertiary"></path></g><g transform="matrix(1,0,0,1,19.69974,19.69974)"><svg viewBox="0 0 316.72104 56.59944125093075" height="56.59944125093075" width="316.72104"><g><svg viewBox="0 0 316.72104 56.59944125093075" height="56.59944125093075" width="316.72104"><g transform="matrix(1,0,0,1,0,0)"><svg width="316.72104" viewBox="4.699999809265137 -35.5 201.44000244140625 36" height="56.59944125093075" data-palette-color="#ffffff"><path d="M6.2-35L18.95-35Q22.65-35 25.43-33.6 28.2-32.2 30-29.73 31.8-27.25 32.68-24.1 33.55-20.95 33.55-17.5L33.55-17.5Q33.55-12.7 31.98-8.72 30.4-4.75 27.18-2.38 23.95 0 18.95 0L18.95 0 6.2 0Q5.6 0 5.15-0.45 4.7-0.9 4.7-1.5L4.7-1.5 4.7-33.5Q4.7-34.1 5.15-34.55 5.6-35 6.2-35L6.2-35ZM7.55-2.95L18.45-2.95Q22.7-2.95 25.3-4.9 27.9-6.85 29.13-10.18 30.35-13.5 30.35-17.5L30.35-17.5Q30.35-20.4 29.68-23.03 29-25.65 27.58-27.68 26.15-29.7 23.88-30.88 21.6-32.05 18.45-32.05L18.45-32.05 7.5-32.05 7.85-32.5 7.85-2.45 7.55-2.95ZM71.85-17.5L71.85-17.5Q71.85-13.55 70.62-10.28 69.4-7 67.15-4.58 64.9-2.15 61.82-0.83 58.75 0.5 55.1 0.5L55.1 0.5Q51.45 0.5 48.37-0.83 45.3-2.15 43.05-4.58 40.8-7 39.57-10.28 38.35-13.55 38.35-17.5L38.35-17.5Q38.35-21.45 39.57-24.73 40.8-28 43.05-30.43 45.3-32.85 48.37-34.18 51.45-35.5 55.1-35.5L55.1-35.5Q58.75-35.5 61.82-34.18 64.9-32.85 67.15-30.43 69.4-28 70.62-24.73 71.85-21.45 71.85-17.5ZM68.65-17.5L68.65-17.5Q68.65-21.95 66.92-25.33 65.2-28.7 62.15-30.6 59.1-32.5 55.1-32.5L55.1-32.5Q51.15-32.5 48.07-30.6 45-28.7 43.27-25.33 41.55-21.95 41.55-17.5L41.55-17.5Q41.55-13.05 43.27-9.68 45-6.3 48.07-4.4 51.15-2.5 55.1-2.5L55.1-2.5Q59.1-2.5 62.15-4.4 65.2-6.3 66.92-9.68 68.65-13.05 68.65-17.5ZM103.7-35L103.7-35Q104.4-35 104.8-34.58 105.2-34.15 105.2-33.5L105.2-33.5 105.2-12.8Q105.2-9.1 103.45-6.1 101.7-3.1 98.75-1.33 95.8 0.45 92.09 0.45L92.09 0.45Q88.4 0.45 85.42-1.33 82.45-3.1 80.7-6.1 78.95-9.1 78.95-12.8L78.95-12.8 78.95-33.5Q78.95-34.15 79.37-34.58 79.8-35 80.55-35L80.55-35Q81.15-35 81.59-34.58 82.05-34.15 82.05-33.5L82.05-33.5 82.05-12.8Q82.05-9.9 83.42-7.6 84.8-5.3 87.09-3.93 89.4-2.55 92.09-2.55L92.09-2.55Q94.9-2.55 97.2-3.93 99.5-5.3 100.87-7.6 102.25-9.9 102.25-12.8L102.25-12.8 102.25-33.5Q102.25-34.15 102.65-34.58 103.05-35 103.7-35ZM115.39-35L138.14-35Q138.89-35 139.34-34.55 139.79-34.1 139.79-33.5L139.79-33.5Q139.79-33 139.49-32.6L139.49-32.6 116.74-2.45 116.64-2.85 138.09-2.85Q138.69-2.85 139.14-2.45 139.59-2.05 139.59-1.45L139.59-1.45Q139.59-0.85 139.14-0.43 138.69 0 138.09 0L138.09 0 114.14 0Q113.44 0 113.02-0.5 112.59-1 112.59-1.55L112.59-1.55Q112.59-2.05 112.89-2.45L112.89-2.45 135.54-32.35 135.84-32.15 115.39-32.15Q114.74-32.15 114.32-32.58 113.89-33 113.89-33.6L113.89-33.6Q113.89-34.2 114.32-34.6 114.74-35 115.39-35L115.39-35ZM157.59-31.35L158.49-31.15 146.34-0.95Q146.14-0.45 145.79-0.2 145.44 0.05 144.99 0.05L144.99 0.05Q144.29 0.05 143.94-0.33 143.59-0.7 143.54-1.25L143.54-1.25Q143.49-1.5 143.59-1.85L143.59-1.85 156.79-34.15Q157.04-34.7 157.42-34.93 157.79-35.15 158.29-35.15L158.29-35.15Q158.79-35.15 159.17-34.88 159.54-34.6 159.74-34.15L159.74-34.15 172.89-2Q172.99-1.7 172.99-1.4L172.99-1.4Q172.99-0.7 172.54-0.33 172.09 0.05 171.49 0.05L171.49 0.05Q170.99 0.05 170.62-0.23 170.24-0.5 170.04-0.95L170.04-0.95 157.59-31.35ZM166.59-10.1L149.24-10.1 150.49-13.05 165.99-13.05 166.59-10.1ZM204.74-35L204.74-35Q205.39-35 205.76-34.6 206.14-34.2 206.14-33.6L206.14-33.6 206.14-1.6Q206.14-0.85 205.66-0.43 205.19 0 204.59 0L204.59 0Q204.29 0 203.94-0.13 203.59-0.25 203.39-0.5L203.39-0.5 181.09-30.55 181.94-31 181.94-1.35Q181.94-0.8 181.54-0.4 181.14 0 180.54 0L180.54 0Q179.89 0 179.51-0.4 179.14-0.8 179.14-1.35L179.14-1.35 179.14-33.5Q179.14-34.25 179.59-34.63 180.04-35 180.59-35L180.59-35Q180.89-35 181.24-34.88 181.59-34.75 181.79-34.45L181.79-34.45 203.84-4.75 203.34-3.85 203.34-33.6Q203.34-34.2 203.76-34.6 204.19-35 204.74-35Z" opacity="1" transform="matrix(1,0,0,1,0,0)" fill="#ffffff" class="undefined-text-0" data-fill-palette-color="quaternary" id="text-0"></path></svg></g></svg></g></svg></g></svg></g><g></g></svg></g><defs></defs></svg><rect width="356.12052" height="95.99892125093075" fill="none" stroke="none" visibility="hidden"></rect></g></svg></g></svg>